<?xml version="1.0" standalone="no"?>
<!DOCTYPE svg PUBLIC "-//W3C//DTD SVG 20010904//EN"
 "http://www.w3.org/TR/2001/REC-SVG-20010904/DTD/svg10.dtd">
<svg version="1.0" xmlns="http://www.w3.org/2000/svg"
 width="475.000000pt" height="475.000000pt" viewBox="0 0 475.000000 475.000000"
 preserveAspectRatio="xMidYMid meet">
<metadata>
Created by potrace 1.14, written by Peter Selinger 2001-2017
</metadata>
<g transform="translate(0.000000,475.000000) scale(0.100000,-0.100000)"
fill="#000000" stroke="none">
<path d="M1315 4121 c-3 -5 -22 -15 -43 -22 -46 -15 -118 -71 -137 -109 -13
-25 -21 -54 -24 -82 -1 -4 -16 -15 -33 -24 -18 -9 -49 -29 -68 -44 -19 -15
-51 -35 -70 -46 -41 -23 -81 -57 -165 -141 -55 -55 -94 -79 -121 -72 -15 4
-87 -11 -114 -24 -75 -35 -112 -73 -139 -142 -24 -62 -20 -120 13 -185 14 -27
21 -52 16 -55 -21 -13 -124 -254 -140 -327 -5 -24 -18 -70 -30 -103 -29 -80
-43 -334 -25 -465 4 -30 7 -61 6 -67 -4 -53 8 -124 34 -201 14 -40 25 -78 25
-85 0 -20 66 -181 97 -239 62 -111 76 -135 114 -190 40 -60 46 -74 29 -80 -22
-8 -117 -109 -135 -144 -11 -21 -26 -45 -32 -52 -7 -7 -13 -19 -13 -25 0 -7
-6 -24 -14 -39 -13 -24 -12 -28 8 -47 13 -12 47 -26 80 -32 68 -12 66 -12 176
-5 96 7 146 18 209 47 l44 21 41 -24 c70 -39 158 -86 226 -119 67 -33 302
-113 355 -122 17 -3 41 -9 55 -15 14 -5 28 -10 33 -10 4 0 20 -3 35 -6 112
-25 122 -26 265 -43 109 -12 452 0 452 17 0 1 15 4 33 7 18 2 53 10 77 17 24
8 47 10 52 6 8 -8 105 -61 193 -106 73 -37 183 -74 251 -85 35 -5 71 -12 79
-16 23 -10 120 -11 114 -1 -3 4 5 8 18 9 74 2 148 32 193 77 32 32 30 64 -10
144 -26 51 -122 180 -153 205 -25 21 -8 24 44 8 27 -8 50 -15 52 -15 1 0 3 0
5 -1 62 -19 227 -25 402 -15 145 8 195 17 287 47 84 28 154 60 232 107 37 23
71 42 74 42 11 0 149 147 169 180 57 95 86 158 88 193 2 20 -1 37 -5 37 -5 0
-12 10 -16 22 -16 51 -114 143 -179 168 -14 5 -45 19 -70 30 -25 11 -51 20
-58 19 -6 -1 -25 3 -40 9 -25 11 -80 20 -128 21 -9 1 -27 10 -40 22 -13 11
-34 29 -46 39 -28 24 -109 65 -148 75 -62 15 -71 16 -113 20 -60 5 -70 16 -66
73 6 78 6 375 -1 402 -3 14 -7 40 -10 58 -2 18 -6 36 -9 40 -2 4 -7 28 -10 52
-9 80 -18 125 -25 135 -4 6 -13 30 -20 54 -7 24 -24 69 -38 100 -14 31 -29 68
-34 83 -6 24 -55 109 -144 252 -11 18 -37 61 -58 97 -55 91 -268 288 -369 339
-16 7 -28 17 -28 22 0 4 -5 8 -11 8 -7 0 -35 16 -64 35 -69 45 -204 108 -340
157 -60 21 -111 39 -113 38 -1 0 -21 3 -45 7 -23 4 -46 6 -50 5 -4 -1 -17 3
-28 8 -32 18 -205 31 -394 29 -130 0 -142 -1 -195 -14 -52 -13 -51 -13 -101
11 -25 12 -62 25 -82 29 -20 4 -34 11 -31 16 8 13 -58 8 -75 -5 -11 -8 -13 -8
-7 2 4 6 3 12 -3 12 -5 0 -12 -4 -16 -9z"/>
</g>
</svg>
